<svg id="Component_18_1" data-name="Component 18 – 1" xmlns="http://www.w3.org/2000/svg" width="42.453" height="42.454" viewBox="0 0 42.453 42.454">
  <path id="Path_88" data-name="Path 88" d="M36.463,34.908a4.561,4.561,0,0,0-2.958-2.154.348.348,0,0,1-.281-.281,14.208,14.208,0,0,0-4.437-7.195A14.264,14.264,0,0,0,17.9,21.664a14.036,14.036,0,0,0-7.64,2.948A14.4,14.4,0,0,0,5.017,32.5a.283.283,0,0,1-.23.23,5.212,5.212,0,0,0-.665.2,4.373,4.373,0,0,0-2.18,6.617,4.545,4.545,0,0,0,2.707,1.75,3.053,3.053,0,0,0,2.088-.051l-.056-.179a13.151,13.151,0,0,1,.983-11.739,13.346,13.346,0,0,1,24.579,9.3,12.978,12.978,0,0,1-8.786,10.2,1.022,1.022,0,0,1-.568.041,4.654,4.654,0,0,0-2.124.082.957.957,0,0,0-.778.778,2.533,2.533,0,0,0,.005.921.87.87,0,0,0,.778.732,8.574,8.574,0,0,0,1.023.113,1.8,1.8,0,0,0,1.1-.256,1.3,1.3,0,0,0,.5-.67,1.063,1.063,0,0,1,.7-.665,13.857,13.857,0,0,0,4.263-2.415,14.53,14.53,0,0,0,4.309-5.849.335.335,0,0,1,.266-.22,10.936,10.936,0,0,0,1.469-.476,4.282,4.282,0,0,0,2.078-6.028" transform="translate(2.357 -15.487)" fill="#fff"/>
  <path id="Path_89" data-name="Path 89" d="M17.042,32.307A16.952,16.952,0,0,0,25.1,28.259a1.847,1.847,0,0,0-2.385-2.82A22.231,22.231,0,0,1,20.906,26.8a11.556,11.556,0,0,1-12.5.486,14.511,14.511,0,0,1-2.876-2.1,1.846,1.846,0,1,0-2.513,2.7c.384.348.768.686,1.172,1.008a16.466,16.466,0,0,0,7.389,3.429,13.425,13.425,0,0,0,5.02.067c.148-.026.292-.056.44-.082" transform="translate(7.383 -3)" fill="#fff"/>
  <path id="Path_90" data-name="Path 90" d="M9.184,25.245a2.059,2.059,0,0,0-2.078-2.088A2.056,2.056,0,0,0,5,25.214a2.093,2.093,0,1,0,4.186.031" transform="translate(18.158 -9.135)" fill="#fff"/>
  <path id="Path_91" data-name="Path 91" d="M7.744,25.285a2.037,2.037,0,0,0-2.073-2.129,2.068,2.068,0,0,0-2.108,2.067,2.093,2.093,0,0,0,2.083,2.108,2.071,2.071,0,0,0,2.1-2.047" transform="translate(12.25 -9.14)" fill="#fff"/>
  <path id="Path_92" data-name="Path 92" d="M21.7,62.87A21.227,21.227,0,1,1,42.926,41.644,21.252,21.252,0,0,1,21.7,62.87m0-41.056a19.83,19.83,0,1,0,19.83,19.83A19.85,19.85,0,0,0,21.7,21.814" transform="translate(-0.473 -20.417)" fill="#fff"/>
</svg>
