<svg xmlns="http://www.w3.org/2000/svg" xmlns:xlink="http://www.w3.org/1999/xlink" width="225.847" height="80.924" viewBox="0 0 225.847 80.924">
  <defs>
    <clipPath id="clip-path">
      <rect id="Rectangle_84" data-name="Rectangle 84" width="225.847" height="80.924" fill="none"/>
    </clipPath>
  </defs>
  <g id="Group_164" data-name="Group 164" clip-path="url(#clip-path)">
    <path id="Path_104" data-name="Path 104" d="M117.6,24.918c-.922-.089-1.855-.073-2.783-.082-1.145-.012-1.422.193-1.658,1.337-.166.812-.249,1.641-.389,2.6-.22-.24-.357-.4-.5-.544-.162-.167-.327-.331-.5-.489a12.345,12.345,0,0,0-11.129-3.126,15.4,15.4,0,0,0-12.786,17.2,14.791,14.791,0,0,0,8.892,12.254c5.038,2.307,9.954,2.09,14.479-1.426.376-.293.728-.618,1.169-.994.061.722.091,1.352.171,1.975.114.89.551,1.377,1.287,1.393,1.2.026,2.4.044,3.6-.006,1.171-.05,1.615-.57,1.615-1.734q0-13.341,0-26.681c0-1.113-.353-1.565-1.472-1.674M105.77,48.926a8.791,8.791,0,0,1-11.1-6.611c-.175-.768-.233-1.564-.345-2.346a9.477,9.477,0,0,1,6.4-9.016,9.034,9.034,0,0,1,10.513,4.571,9.4,9.4,0,0,1-5.47,13.4" transform="translate(0 0)" fill="#fff"/>
    <path id="Path_105" data-name="Path 105" d="M63.3,24.927c-.9-.09-1.815-.083-2.724-.093-1.366-.016-1.636.217-1.859,1.588-.12.741-.211,1.487-.332,2.347-.273-.29-.44-.475-.615-.652a12.335,12.335,0,0,0-11.5-3.509A15.4,15.4,0,0,0,33.552,42.423,14.829,14.829,0,0,0,43.62,54.591a12.948,12.948,0,0,0,13.153-1.906c.4-.314.783-.655,1.229-1.03.054.669.1,1.244.148,1.818.072.887.521,1.511,1.218,1.53,1.278.037,2.56.059,3.834-.017,1.076-.064,1.454-.558,1.454-1.622V26.509c0-1.029-.346-1.481-1.36-1.582M50.419,49.153a8.6,8.6,0,0,1-9.076-4.214,9.786,9.786,0,0,1,1.868-12.227A8.79,8.79,0,0,1,56.4,34.77a9.2,9.2,0,0,1,1.556,5.2,9.319,9.319,0,0,1-7.534,9.183" transform="translate(0 0)" fill="#fff"/>
    <path id="Path_106" data-name="Path 106" d="M162.038,24.736a15.428,15.428,0,0,0-11.563,18.435,15.751,15.751,0,0,0,16.036,12.36,15.386,15.386,0,0,0,9.808-4.084,1.235,1.235,0,0,0,.205-1.936c-.69-.885-1.412-1.748-2.154-2.591a1.078,1.078,0,0,0-1.687-.133c-.139.1-.266.225-.4.339a9.532,9.532,0,0,1-12.273.469,8.193,8.193,0,0,1-3.025-5.1h.9q10.377-.012,20.755-.03c1.308,0,1.745-.422,1.814-1.731a16.844,16.844,0,0,0-.737-6.077,15.172,15.172,0,0,0-17.679-9.919M157.2,36.78c.47-3.267,4.6-6.538,8.259-6.518A8.418,8.418,0,0,1,173.9,36.78Z" transform="translate(0 0)" fill="#fff"/>
    <path id="Path_107" data-name="Path 107" d="M199.131,24.424a13.983,13.983,0,0,0-6.6,1.769,15.59,15.59,0,0,0-7.806,16.4,15.857,15.857,0,0,0,15.651,12.969,15.2,15.2,0,0,0,10.243-4.042,1.33,1.33,0,0,0,.187-2.16c-.6-.758-1.236-1.491-1.861-2.231-.729-.865-1.233-.9-2.106-.159-.089.076-.176.153-.265.227a10.036,10.036,0,0,1-6.1,2.4,8.819,8.819,0,0,1-8.622-5.417c-.2-.51-.332-1.051-.53-1.688h.869q9.826,0,19.653,0c.484,0,.97,0,1.453-.037.911-.061,1.446-.479,1.494-1.243a15.492,15.492,0,0,0-1.891-9.3,14.879,14.879,0,0,0-13.768-7.49m-7.515,12.352c.091-2.846,4.285-6.361,7.9-6.5a8.392,8.392,0,0,1,8.766,6.5Z" transform="translate(0 0)" fill="#fff"/>
    <path id="Path_108" data-name="Path 108" d="M15.575,25.91c.633.114.757.336.753.921-.023,4.439-.012,8.877-.012,13.315q0,6.717,0,13.432c0,1.1.355,1.449,1.466,1.451q2.005,0,4.012,0c1.1,0,1.418-.318,1.418-1.417q0-13.257,0-26.514c0-.92,0-.919.869-1.073q.372-.066.742-.137c5.2-.986-13.918-.815-9.248.022" transform="translate(0 0)" fill="#fff"/>
    <path id="Path_109" data-name="Path 109" d="M140.509,38.089c-1.708-.753-3.529-1.246-5.282-1.9a15.261,15.261,0,0,1-3.062-1.332c-1.464-.956-1.451-2.437-.1-3.572a4.953,4.953,0,0,1,4.156-.979,6.061,6.061,0,0,1,3.648,2.306c.713.821,1.107.888,1.971.223.9-.695,1.769-1.446,2.63-2.2a.888.888,0,0,0,.129-1.3,12.669,12.669,0,0,0-5.038-4.178,13.167,13.167,0,0,0-7.762-.476,9.472,9.472,0,0,0-5.645,3.3,8.548,8.548,0,0,0,2.03,12.134,21.872,21.872,0,0,0,6.17,2.591A24.413,24.413,0,0,1,137.869,44a2.241,2.241,0,0,1,1.261,2.248,2.555,2.555,0,0,1-1.619,2.476,6.714,6.714,0,0,1-6.2.118,7.066,7.066,0,0,1-2.854-2.313c-.69-.988-1.191-1.039-2.111-.338-.723.552-1.448,1.1-2.168,1.659a1.333,1.333,0,0,0-.434,2.014,9.112,9.112,0,0,0,2.512,3.011,13.1,13.1,0,0,0,8.689,2.653,14.456,14.456,0,0,0,5.423-1.1,8.776,8.776,0,0,0,5.2-11.05,8.393,8.393,0,0,0-5.063-5.285" transform="translate(0 0)" fill="#fff"/>
    <path id="Path_110" data-name="Path 110" d="M82.833,27.6c-1.026,0-2.052,0-3.161,0,0-1.466,0-2.857,0-4.247a1.035,1.035,0,0,1,.051-.226,3.441,3.441,0,0,1,3.1-2.492,1.345,1.345,0,0,0,1.355-1.426q.046-1.831,0-3.663a1.257,1.257,0,0,0-1.328-1.315A11.187,11.187,0,0,0,80.6,14.4a9.037,9.037,0,0,0-7.056,6.647,20.134,20.134,0,0,0-.605,3.935c-.087.854-.017,1.725-.017,2.616h-1.2c-.368,0-.736-.009-1.1,0-1.1.034-1.587.509-1.611,1.613-.019.911-.014,1.822,0,2.733.017,1.279.539,1.787,1.817,1.79.688,0,1.377,0,2.1,0v.787q0,9.447,0,18.9a1.407,1.407,0,0,0,1.6,1.611c1.066.008,2.132,0,3.2,0,1.46,0,1.943-.488,1.943-1.955q0-9.3,0-18.6v-.735c1.132,0,2.193,0,3.255,0,1.1,0,1.6-.483,1.624-1.585.018-.949.008-1.9,0-2.848,0-1.286-.42-1.7-1.711-1.7" transform="translate(0 0)" fill="#fff"/>
    <path id="Path_111" data-name="Path 111" d="M225.845,17.4a1.408,1.408,0,0,0-1.49-1.435c-1.221,0-2.442,0-3.662,0-1.263,0-1.655.4-1.655,1.676V35.49q0,6.772,0,13.545c0,1.531-.009,3.062,0,4.593.007.983.4,1.386,1.372,1.394,1.318.014,2.637.041,3.952-.016a1.752,1.752,0,0,0,1.167-.484,2.079,2.079,0,0,0,.3-1.251q.022-17.79.012-35.578c0-.1,0-.194,0-.291" transform="translate(0 0)" fill="#fff"/>
    <path id="Path_112" data-name="Path 112" d="M15.575,25.91a27.828,27.828,0,0,1-12.5-5.8c-.682-.541-1.339-1.117-1.982-1.7a3.127,3.127,0,1,1,4.254-4.578A24.587,24.587,0,0,0,10.2,17.387c7.214,3.922,14.277,3.556,21.162-.824a37.355,37.355,0,0,0,3.058-2.306,3.127,3.127,0,0,1,4.032,4.78,28.719,28.719,0,0,1-13.634,6.851q-.37.07-.742.137a22.687,22.687,0,0,1-8.506-.115" transform="translate(0 0)" fill="#fff"/>
    <path id="Path_113" data-name="Path 113" d="M26.247,0a3.489,3.489,0,0,1,3.517,3.538,3.545,3.545,0,1,1-7.089-.056A3.491,3.491,0,0,1,26.247,0" transform="translate(0 0)" fill="#fff"/>
    <path id="Path_114" data-name="Path 114" d="M13.814,0a3.45,3.45,0,0,1,3.507,3.6A3.506,3.506,0,0,1,13.77,7.067,3.546,3.546,0,0,1,10.24,3.5,3.5,3.5,0,0,1,13.814,0" transform="translate(0 0)" fill="#fff"/>
    <path id="Path_115" data-name="Path 115" d="M52.22,73.09a3.061,3.061,0,0,1,.628,1.1,4.668,4.668,0,0,1,.218,1.48,4.58,4.58,0,0,1-.223,1.483,3.031,3.031,0,0,1-.623,1.091,2.663,2.663,0,0,1-.979.684,3.693,3.693,0,0,1-2.574,0,2.657,2.657,0,0,1-.983-.679,3.056,3.056,0,0,1-.623-1.094,5.118,5.118,0,0,1,0-2.949,3.126,3.126,0,0,1,.63-1.114,2.579,2.579,0,0,1,.983-.675,3.425,3.425,0,0,1,1.28-.234,3.383,3.383,0,0,1,1.294.236,2.705,2.705,0,0,1,.974.673m-.081,2.583a3.085,3.085,0,0,0-.585-2.014,2.164,2.164,0,0,0-3.2,0,3.1,3.1,0,0,0-.582,2.014,3.035,3.035,0,0,0,.594,2.018,2.159,2.159,0,0,0,3.183,0,3.041,3.041,0,0,0,.592-2.018" transform="translate(0 0)" fill="#fff"/>
    <path id="Path_116" data-name="Path 116" d="M60.016,79.021H59.17v-.558a4.17,4.17,0,0,1-.819.518,2.059,2.059,0,0,1-.864.179,1.585,1.585,0,0,1-1.233-.483,2.042,2.042,0,0,1-.441-1.42V74h.846v2.862a5.072,5.072,0,0,0,.036.654,1.192,1.192,0,0,0,.153.466.726.726,0,0,0,.315.288,1.382,1.382,0,0,0,.563.09,1.794,1.794,0,0,0,.717-.171,3.339,3.339,0,0,0,.727-.436V74h.846Z" transform="translate(0 0)" fill="#fff"/>
    <path id="Path_117" data-name="Path 117" d="M65.729,78.976a4.874,4.874,0,0,1-.52.1,3.719,3.719,0,0,1-.5.04,1.558,1.558,0,0,1-1.17-.414,1.862,1.862,0,0,1-.4-1.327V74.706h-.572V74h.572V72.55h.846V74h1.746v.711H63.983V77c0,.264,0,.47.018.619a.983.983,0,0,0,.126.416.6.6,0,0,0,.271.263,1.274,1.274,0,0,0,.529.084,1.672,1.672,0,0,0,.432-.061,3.229,3.229,0,0,0,.325-.1h.045Z" transform="translate(0 0)" fill="#fff"/>
    <path id="Path_118" data-name="Path 118" d="M71.779,77.572A1.368,1.368,0,0,1,71.21,78.7a2.48,2.48,0,0,1-1.555.441,3.751,3.751,0,0,1-1.024-.132,4.607,4.607,0,0,1-.78-.291V77.77H67.9a3.379,3.379,0,0,0,.891.479,2.744,2.744,0,0,0,.94.178,1.769,1.769,0,0,0,.873-.18.606.606,0,0,0,.315-.567.573.573,0,0,0-.171-.45,1.541,1.541,0,0,0-.657-.261c-.12-.027-.277-.058-.47-.094s-.37-.075-.529-.117a1.752,1.752,0,0,1-.938-.516,1.273,1.273,0,0,1-.277-.834A1.372,1.372,0,0,1,68,74.823a1.423,1.423,0,0,1,.39-.491A1.85,1.85,0,0,1,69.032,74a2.85,2.85,0,0,1,.871-.124,3.938,3.938,0,0,1,.911.11,3.469,3.469,0,0,1,.767.268v.9h-.045a3.008,3.008,0,0,0-.787-.4,2.7,2.7,0,0,0-.909-.164,1.6,1.6,0,0,0-.783.177.624.624,0,0,0-.126,1,1.511,1.511,0,0,0,.612.257c.156.036.33.072.524.108s.355.069.484.1a1.788,1.788,0,0,1,.908.463,1.221,1.221,0,0,1,.32.882" transform="translate(0 0)" fill="#fff"/>
    <path id="Path_119" data-name="Path 119" d="M78.711,76.51a2.819,2.819,0,0,1-.63,1.939,2.366,2.366,0,0,1-3.382,0,3.316,3.316,0,0,1,0-3.881,2.362,2.362,0,0,1,3.382,0,2.831,2.831,0,0,1,.63,1.942m-.873,0a2.288,2.288,0,0,0-.382-1.451,1.433,1.433,0,0,0-2.131,0,2.919,2.919,0,0,0,0,2.884,1.406,1.406,0,0,0,2.126,0,2.276,2.276,0,0,0,.385-1.438" transform="translate(0 0)" fill="#fff"/>
    <path id="Path_120" data-name="Path 120" d="M85.625,79.021h-.846v-.558a4.17,4.17,0,0,1-.819.518,2.058,2.058,0,0,1-.864.179,1.585,1.585,0,0,1-1.233-.483,2.042,2.042,0,0,1-.441-1.42V74h.846v2.862a5.071,5.071,0,0,0,.036.654,1.192,1.192,0,0,0,.153.466.726.726,0,0,0,.315.288,1.382,1.382,0,0,0,.563.09,1.794,1.794,0,0,0,.717-.171,3.339,3.339,0,0,0,.727-.436V74h.846Z" transform="translate(0 0)" fill="#fff"/>
    <path id="Path_121" data-name="Path 121" d="M91.864,74.917h-.045a2.986,2.986,0,0,0-.367-.065,3.625,3.625,0,0,0-.42-.021,1.735,1.735,0,0,0-.756.174,3.456,3.456,0,0,0-.7.447v3.569h-.846V74h.846v.742a4.183,4.183,0,0,1,.888-.574A1.949,1.949,0,0,1,91.247,74a3.049,3.049,0,0,1,.32.011c.066.007.165.022.3.043Z" transform="translate(0 0)" fill="#fff"/>
    <path id="Path_122" data-name="Path 122" d="M97.815,78.706a5.478,5.478,0,0,1-.8.315,2.838,2.838,0,0,1-.808.113,3.007,3.007,0,0,1-1-.16,2.046,2.046,0,0,1-.778-.484,2.173,2.173,0,0,1-.509-.819,3.377,3.377,0,0,1-.18-1.156,2.672,2.672,0,0,1,.677-1.935,2.373,2.373,0,0,1,1.789-.7,3.007,3.007,0,0,1,.848.121,4.423,4.423,0,0,1,.763.3v.941H97.77a3.213,3.213,0,0,0-.8-.464,2.183,2.183,0,0,0-.8-.162,1.418,1.418,0,0,0-1.136.484,2.616,2.616,0,0,0-.009,2.817,1.409,1.409,0,0,0,1.145.488,2.112,2.112,0,0,0,.522-.067,2.284,2.284,0,0,0,.477-.176,3.945,3.945,0,0,0,.347-.2c.108-.071.193-.131.256-.182h.045Z" transform="translate(0 0)" fill="#fff"/>
    <path id="Path_123" data-name="Path 123" d="M101.246,73.153h-.954v-.877h.954Zm-.054,5.868h-.846V74h.846Z" transform="translate(0 0)" fill="#fff"/>
    <path id="Path_124" data-name="Path 124" d="M108.507,79.021h-.846V76.159a4.921,4.921,0,0,0-.04-.65,1.187,1.187,0,0,0-.149-.475.681.681,0,0,0-.324-.281,1.378,1.378,0,0,0-.549-.092,1.754,1.754,0,0,0-.724.171,3.693,3.693,0,0,0-.725.436v3.753H104.3V74h.846v.558a3.439,3.439,0,0,1,.819-.513,2.155,2.155,0,0,1,.869-.185,1.559,1.559,0,0,1,1.242.491,2.093,2.093,0,0,1,.427,1.413Z" transform="translate(0 0)" fill="#fff"/>
    <path id="Path_125" data-name="Path 125" d="M115.65,78.449a2.612,2.612,0,0,1-.581,1.876,2.387,2.387,0,0,1-1.786.6,5.418,5.418,0,0,1-.781-.056,6.158,6.158,0,0,1-.749-.16v-.864h.046a6.43,6.43,0,0,0,.656.2,3.478,3.478,0,0,0,.9.119,2.115,2.115,0,0,0,.716-.1,1.035,1.035,0,0,0,.441-.288,1.014,1.014,0,0,0,.224-.423,2.107,2.107,0,0,0,.068-.554v-.459a3.26,3.26,0,0,1-.731.457,2.248,2.248,0,0,1-.889.151,1.747,1.747,0,0,1-1.429-.65,2.839,2.839,0,0,1-.528-1.834,3.056,3.056,0,0,1,.183-1.118,2.5,2.5,0,0,1,.5-.812,2.025,2.025,0,0,1,.712-.5,2.119,2.119,0,0,1,.833-.177,2.619,2.619,0,0,1,.73.087,3.266,3.266,0,0,1,.623.268l.054-.216h.792Zm-.846-.81V74.9a3.307,3.307,0,0,0-.628-.219,2.654,2.654,0,0,0-.578-.065,1.369,1.369,0,0,0-1.1.468,2.035,2.035,0,0,0-.4,1.359,2.279,2.279,0,0,0,.3,1.282,1.105,1.105,0,0,0,.985.437,2.049,2.049,0,0,0,.74-.142,2.662,2.662,0,0,0,.682-.38" transform="translate(0 0)" fill="#fff"/>
    <path id="Path_126" data-name="Path 126" d="M129.042,79.021h-1.156l-2.241-2.664H124.39v2.664H123.5v-6.7h1.876a5.491,5.491,0,0,1,1.013.078,2.147,2.147,0,0,1,.729.282,1.7,1.7,0,0,1,.569.578,1.729,1.729,0,0,1,.2.884,1.972,1.972,0,0,1-.364,1.213,2.215,2.215,0,0,1-1,.735Zm-2.083-4.815a1.233,1.233,0,0,0-.1-.511.9.9,0,0,0-.335-.375,1.242,1.242,0,0,0-.459-.183,3.361,3.361,0,0,0-.626-.051H124.39v2.528h.9a3.217,3.217,0,0,0,.738-.074,1.165,1.165,0,0,0,.834-.711,1.7,1.7,0,0,0,.1-.623" transform="translate(0 0)" fill="#fff"/>
    <path id="Path_127" data-name="Path 127" d="M135.258,76.6h-3.7a2.145,2.145,0,0,0,.14.808,1.491,1.491,0,0,0,.938.888,2.216,2.216,0,0,0,.709.108,2.8,2.8,0,0,0,1.032-.2,2.546,2.546,0,0,0,.74-.4h.045v.922a7.025,7.025,0,0,1-.872.3,3.542,3.542,0,0,1-.936.121,2.694,2.694,0,0,1-1.953-.677,2.549,2.549,0,0,1-.7-1.924,2.765,2.765,0,0,1,.672-1.957,2.3,2.3,0,0,1,1.771-.724,2.032,2.032,0,0,1,1.568.594,2.386,2.386,0,0,1,.551,1.687Zm-.823-.648a1.5,1.5,0,0,0-.335-1.03,1.293,1.293,0,0,0-1.006-.365,1.466,1.466,0,0,0-1.082.4,1.552,1.552,0,0,0-.457.994Z" transform="translate(0 0)" fill="#fff"/>
    <path id="Path_128" data-name="Path 128" d="M142.056,79.02h-.846v-.526a3.059,3.059,0,0,1-.76.49,2.1,2.1,0,0,1-.86.176,1.7,1.7,0,0,1-1.429-.693,3.1,3.1,0,0,1-.528-1.921,3.3,3.3,0,0,1,.182-1.139,2.615,2.615,0,0,1,.493-.85,2.086,2.086,0,0,1,1.557-.7,2.662,2.662,0,0,1,.7.083,3.228,3.228,0,0,1,.643.259V72.019h.846Zm-.846-1.237V74.9a3.181,3.181,0,0,0-.612-.212,2.782,2.782,0,0,0-.589-.058,1.338,1.338,0,0,0-1.107.5,2.2,2.2,0,0,0-.4,1.4,2.489,2.489,0,0,0,.306,1.361,1.088,1.088,0,0,0,.981.465,1.832,1.832,0,0,0,.729-.159,3.107,3.107,0,0,0,.688-.412" transform="translate(0 0)" fill="#fff"/>
    <path id="Path_129" data-name="Path 129" d="M149.365,76.6h-3.7a2.145,2.145,0,0,0,.14.808,1.491,1.491,0,0,0,.938.888,2.216,2.216,0,0,0,.709.108,2.8,2.8,0,0,0,1.032-.2,2.546,2.546,0,0,0,.74-.4h.045v.922a7.025,7.025,0,0,1-.872.3,3.542,3.542,0,0,1-.936.121,2.694,2.694,0,0,1-1.953-.677,2.549,2.549,0,0,1-.7-1.924,2.765,2.765,0,0,1,.672-1.957,2.3,2.3,0,0,1,1.771-.724,2.032,2.032,0,0,1,1.568.594,2.386,2.386,0,0,1,.551,1.687Zm-.823-.648a1.5,1.5,0,0,0-.335-1.03,1.293,1.293,0,0,0-1.006-.365,1.466,1.466,0,0,0-1.082.4,1.552,1.552,0,0,0-.457.994Z" transform="translate(0 0)" fill="#fff"/>
    <path id="Path_130" data-name="Path 130" d="M154.79,72.838h-.045c-.093-.027-.215-.055-.365-.083a2.1,2.1,0,0,0-.4-.043,1.094,1.094,0,0,0-.79.241,1.2,1.2,0,0,0-.245.87v.171h1.525v.711h-1.5v4.316h-.846V74.705h-.572v-.711h.572v-.166a1.948,1.948,0,0,1,.445-1.375,1.673,1.673,0,0,1,1.287-.479,4.372,4.372,0,0,1,.511.027c.151.018.29.039.416.063Z" transform="translate(0 0)" fill="#fff"/>
    <path id="Path_131" data-name="Path 131" d="M157.673,73.153h-.954v-.877h.954Zm-.054,5.868h-.846V74h.846Z" transform="translate(0 0)" fill="#fff"/>
    <path id="Path_132" data-name="Path 132" d="M164.933,79.021h-.846V76.159a4.92,4.92,0,0,0-.04-.65,1.187,1.187,0,0,0-.149-.475.681.681,0,0,0-.324-.281,1.378,1.378,0,0,0-.549-.092,1.755,1.755,0,0,0-.724.171,3.693,3.693,0,0,0-.725.436v3.753h-.846V74h.846v.558a3.439,3.439,0,0,1,.819-.513,2.155,2.155,0,0,1,.869-.185,1.555,1.555,0,0,1,1.241.491,2.088,2.088,0,0,1,.428,1.413Z" transform="translate(0 0)" fill="#fff"/>
    <path id="Path_133" data-name="Path 133" d="M172.207,76.6h-3.7a2.145,2.145,0,0,0,.14.808,1.491,1.491,0,0,0,.938.888,2.216,2.216,0,0,0,.709.108,2.8,2.8,0,0,0,1.032-.2,2.532,2.532,0,0,0,.74-.4h.045v.922a7.025,7.025,0,0,1-.872.3,3.542,3.542,0,0,1-.936.121,2.694,2.694,0,0,1-1.953-.677,2.549,2.549,0,0,1-.7-1.924,2.765,2.765,0,0,1,.672-1.957,2.3,2.3,0,0,1,1.771-.724,2.032,2.032,0,0,1,1.568.594,2.386,2.386,0,0,1,.551,1.687Zm-.823-.648a1.5,1.5,0,0,0-.335-1.03,1.293,1.293,0,0,0-1.006-.365,1.466,1.466,0,0,0-1.082.4,1.552,1.552,0,0,0-.457.994Z" transform="translate(0 0)" fill="#fff"/>
    <path id="Path_134" data-name="Path 134" d="M179.005,79.02h-.846v-.526a3.059,3.059,0,0,1-.76.49,2.1,2.1,0,0,1-.86.176,1.7,1.7,0,0,1-1.429-.693,3.1,3.1,0,0,1-.528-1.921,3.3,3.3,0,0,1,.182-1.139,2.615,2.615,0,0,1,.493-.85,2.086,2.086,0,0,1,1.557-.7,2.662,2.662,0,0,1,.7.083,3.227,3.227,0,0,1,.643.259V72.019h.846Zm-.846-1.237V74.9a3.18,3.18,0,0,0-.612-.212,2.781,2.781,0,0,0-.589-.058,1.338,1.338,0,0,0-1.107.5,2.2,2.2,0,0,0-.4,1.4,2.489,2.489,0,0,0,.306,1.361,1.088,1.088,0,0,0,.981.465,1.832,1.832,0,0,0,.729-.159,3.107,3.107,0,0,0,.688-.412" transform="translate(0 0)" fill="#fff"/>
  </g>
</svg>
