<svg id="Component_16_2" data-name="Component 16 – 2" xmlns="http://www.w3.org/2000/svg" width="42.453" height="46.972" viewBox="0 0 42.453 46.972">
  <path id="Path_86" data-name="Path 86" d="M17.579,35.729A16.052,16.052,0,0,0,1.526,51.777c0,8.868,16.053,24.932,16.053,24.932S33.632,60.645,33.632,51.777A16.052,16.052,0,0,0,17.579,35.729m0,25.781A10.662,10.662,0,1,1,28.239,50.851,10.659,10.659,0,0,1,17.579,61.51" transform="translate(3.863 -35.729)" fill="#fff"/>
  <path id="Path_87" data-name="Path 87" d="M21.7,71.044A21.2,21.2,0,0,1,3.518,38.9a.69.69,0,0,1,.962-.235.7.7,0,0,1,.241.957A19.819,19.819,0,1,0,41.529,49.817,19.6,19.6,0,0,0,39.442,41a.7.7,0,0,1,1.254-.624,21.2,21.2,0,0,1-19,30.668" transform="translate(-0.473 -24.072)" fill="#fff"/>
</svg>
