<svg id="Component_17_1" data-name="Component 17 – 1" xmlns="http://www.w3.org/2000/svg" width="46.368" height="42.448" viewBox="0 0 46.368 42.448">
  <g id="Group_170" data-name="Group 170" transform="translate(-136.892 -6484.582)">
    <path id="Path_82" data-name="Path 82" d="M40.027,11.473,25.064,31.753.24,27.393a.818.818,0,0,0-.051.7l5.89,14.723a.822.822,0,0,0,1.07.455L45.983,27.731a.829.829,0,0,0,.461-1.07l-5.9-14.717a.8.8,0,0,0-.522-.471" transform="translate(136.76 6479.578)" fill="#fff"/>
  </g>
  <path id="Path_84" data-name="Path 84" d="M13.562,31.985A21.2,21.2,0,0,1,2.795,29.027a.691.691,0,0,1-.333-.732.7.7,0,0,1,.583-.558.84.84,0,0,1,.722.241A19.689,19.689,0,0,0,32.644,15.753.7.7,0,0,1,34,16.106,21.184,21.184,0,0,1,13.562,31.985" transform="translate(9.41 10.463)" fill="#fff"/>
  <path id="Path_85" data-name="Path 85" d="M1.284,27.736a.73.73,0,0,1-.148-.015A.7.7,0,0,1,.6,26.886,21.128,21.128,0,0,1,33.917,14.426a.7.7,0,0,1-.834,1.126A19.719,19.719,0,0,0,1.969,27.188a.7.7,0,0,1-.686.548" transform="translate(1.72 -10.209)" fill="#fff"/>
</svg>
